<svg height="200px" width="200px" version="1.1" id="Layer_1" xmlns="http://www.w3.org/2000/svg" xmlns:xlink="http://www.w3.org/1999/xlink" viewBox="-128 -128 768.00 768.00" xml:space="preserve" fill="#000000"><g id="SVGRepo_bgCarrier" stroke-width="0"><path transform="translate(-128, -128), scale(24)" d="M16,29.828374529805252C18.177017602806252,29.89516670874087,19.84867453961433,27.900689559761336,21.50149317525696,26.4822194699224C22.91679553245385,25.267588887673565,23.7342079052881,23.59513205792151,24.930387728977102,22.16420157637443C26.254247212665405,20.580534262330783,28.868625154296073,19.634904082302416,28.949640434086827,17.572371023522C29.03285158002599,15.453934355750144,26.414611536737567,14.279031165833064,25.311221476623842,12.46871948399177C24.43086394234966,11.024333145828376,23.826302160341164,9.510873922970193,23.10389343023056,7.981361939137976C21.950088419222908,5.538480897166521,22.290276711191524,1.6852449953989757,19.764797846308053,0.7256147063413607C17.38787734569715,-0.17756644428507962,15.300612413227924,2.9263878917178525,13.085273947913432,4.174491549740424C11.394544532670341,5.127034739384222,9.90488995042742,6.251178048945107,8.226893237920688,7.225976241660721C6.126662057084943,8.446062993979343,2.318971025739996,8.264372710289793,1.9205945627052667,10.66038583417665C1.477717556686709,13.32404500370864,5.7633055148818615,14.569616851678582,6.577849851012289,17.144056157307997C7.18214909218877,19.05399727388051,5.0016996823803614,21.19563494683564,5.83089258334082,23.019228041431447C6.638175532722125,24.794635923205977,9.05229371484361,25.064864675781596,10.672873742959101,26.14999106450417C12.492366331137791,27.368307585295657,13.811315627061276,29.76122440750837,16,29.828374529805252" fill="#eccf7e" strokewidth="0"></path></g><g id="SVGRepo_tracerCarrier" stroke-linecap="round" stroke-linejoin="round" stroke="#CCCCCC" stroke-width="10.24"> <path style="fill:#27467A;" d="M444.484,146.286h-33.758l33.758,286.945l33.758-22.506V180.044 C478.242,161.477,463.051,146.286,444.484,146.286z"></path> <path style="fill:#367596;" d="M410.725,146.286H67.516c-18.567,0-33.758,15.191-33.758,33.758v230.681l410.725,22.506V180.044 C444.484,161.477,429.292,146.286,410.725,146.286z"></path> <path style="fill:#A7CBCF;" d="M478.242,433.231L444.484,512h33.758C496.809,512,512,496.809,512,478.242v-22.505L478.242,433.231z"></path> <path style="fill:#B7D9DD;" d="M478.242,478.242v-45.011L0,455.736v22.505C0,496.809,15.191,512,33.758,512h410.725 C463.051,512,478.242,496.809,478.242,478.242z"></path> <path style="fill:#88ACB5;" d="M247.56,444.484v33.758c0,4.662,3.779,8.44,8.44,8.44c4.661,0,8.44-3.778,8.44-8.44v-33.758H247.56z"></path> <polygon style="fill:#B7D9DD;" points="478.242,410.725 444.484,410.725 428.179,433.231 478.242,455.736 512,455.736 "></polygon> <polygon style="fill:#D0FBFD;" points="33.758,410.725 0,455.736 478.242,455.736 444.484,410.725 "></polygon> <g> <circle style="fill:#FFFFFF;" cx="289.758" cy="320.703" r="8.44"></circle> <circle style="fill:#FFFFFF;" cx="222.242" cy="320.703" r="8.44"></circle> <circle style="fill:#FFFFFF;" cx="256" cy="320.703" r="8.44"></circle> </g> <path style="fill:#FFBE35;" d="M256,0l4.17,270.59l38.195-17.402l10.536-41.326c35.478-18.934,59.626-56.311,59.626-99.335 C368.527,50.38,318.148,0,256,0z"></path> <path style="fill:#FFDB8A;" d="M272.403,222.604c35.63-10.782,62.366-55.966,62.366-110.077C334.769,50.38,299.503,0,256,0 c-62.148,0-112.527,50.38-112.527,112.527c0,43.024,24.148,80.401,59.627,99.335l10.536,41.326l46.535,17.402L272.403,222.604z"></path> <path style="fill:#88ACB5;" d="M264.606,253.188l-25.485,33.758h33.758c9.284,0,18.755-7.36,21.049-16.356l4.437-17.402H264.606z"></path> <path style="fill:#A7CBCF;" d="M260.17,270.59l4.437-17.402h-50.97l4.437,17.402c2.293,8.995,11.766,16.356,21.049,16.356 C248.407,286.946,257.877,279.586,260.17,270.59z"></path> <path style="fill:#FFFFFF;" d="M267.253,227.869h-22.505c-3.691,0-6.954-2.399-8.056-5.922l-28.132-90.022 c-1.123-3.593,0.269-7.494,3.413-9.565c3.144-2.073,7.277-1.808,10.135,0.639l14.198,12.17l14.199-12.17 c3.161-2.71,7.824-2.71,10.985,0l14.202,12.171l14.202-12.171c2.857-2.451,6.99-2.712,10.135-0.639 c3.143,2.071,4.535,5.973,3.413,9.565l-28.132,90.022C274.207,225.47,270.944,227.869,267.253,227.869z M250.952,210.99h10.096 l17.77-56.864c-2.847,1.137-6.18,0.658-8.62-1.431l-14.201-12.171l-14.2,12.171c-2.437,2.09-5.77,2.568-8.615,1.434L250.952,210.99z "></path> <path style="fill:#88ACB5;" d="M298.364,261.628h-84.729c-4.661,0-8.44-3.778-8.44-8.44s3.779-8.44,8.44-8.44h84.729 c4.661,0,8.44,3.778,8.44,8.44S303.025,261.628,298.364,261.628z"></path> </g><g id="SVGRepo_iconCarrier"> <path style="fill:#27467A;" d="M444.484,146.286h-33.758l33.758,286.945l33.758-22.506V180.044 C478.242,161.477,463.051,146.286,444.484,146.286z"></path> <path style="fill:#367596;" d="M410.725,146.286H67.516c-18.567,0-33.758,15.191-33.758,33.758v230.681l410.725,22.506V180.044 C444.484,161.477,429.292,146.286,410.725,146.286z"></path> <path style="fill:#A7CBCF;" d="M478.242,433.231L444.484,512h33.758C496.809,512,512,496.809,512,478.242v-22.505L478.242,433.231z"></path> <path style="fill:#B7D9DD;" d="M478.242,478.242v-45.011L0,455.736v22.505C0,496.809,15.191,512,33.758,512h410.725 C463.051,512,478.242,496.809,478.242,478.242z"></path> <path style="fill:#88ACB5;" d="M247.56,444.484v33.758c0,4.662,3.779,8.44,8.44,8.44c4.661,0,8.44-3.778,8.44-8.44v-33.758H247.56z"></path> <polygon style="fill:#B7D9DD;" points="478.242,410.725 444.484,410.725 428.179,433.231 478.242,455.736 512,455.736 "></polygon> <polygon style="fill:#D0FBFD;" points="33.758,410.725 0,455.736 478.242,455.736 444.484,410.725 "></polygon> <g> <circle style="fill:#FFFFFF;" cx="289.758" cy="320.703" r="8.44"></circle> <circle style="fill:#FFFFFF;" cx="222.242" cy="320.703" r="8.44"></circle> <circle style="fill:#FFFFFF;" cx="256" cy="320.703" r="8.44"></circle> </g> <path style="fill:#FFBE35;" d="M256,0l4.17,270.59l38.195-17.402l10.536-41.326c35.478-18.934,59.626-56.311,59.626-99.335 C368.527,50.38,318.148,0,256,0z"></path> <path style="fill:#FFDB8A;" d="M272.403,222.604c35.63-10.782,62.366-55.966,62.366-110.077C334.769,50.38,299.503,0,256,0 c-62.148,0-112.527,50.38-112.527,112.527c0,43.024,24.148,80.401,59.627,99.335l10.536,41.326l46.535,17.402L272.403,222.604z"></path> <path style="fill:#88ACB5;" d="M264.606,253.188l-25.485,33.758h33.758c9.284,0,18.755-7.36,21.049-16.356l4.437-17.402H264.606z"></path> <path style="fill:#A7CBCF;" d="M260.17,270.59l4.437-17.402h-50.97l4.437,17.402c2.293,8.995,11.766,16.356,21.049,16.356 C248.407,286.946,257.877,279.586,260.17,270.59z"></path> <path style="fill:#FFFFFF;" d="M267.253,227.869h-22.505c-3.691,0-6.954-2.399-8.056-5.922l-28.132-90.022 c-1.123-3.593,0.269-7.494,3.413-9.565c3.144-2.073,7.277-1.808,10.135,0.639l14.198,12.17l14.199-12.17 c3.161-2.71,7.824-2.71,10.985,0l14.202,12.171l14.202-12.171c2.857-2.451,6.99-2.712,10.135-0.639 c3.143,2.071,4.535,5.973,3.413,9.565l-28.132,90.022C274.207,225.47,270.944,227.869,267.253,227.869z M250.952,210.99h10.096 l17.77-56.864c-2.847,1.137-6.18,0.658-8.62-1.431l-14.201-12.171l-14.2,12.171c-2.437,2.09-5.77,2.568-8.615,1.434L250.952,210.99z "></path> <path style="fill:#88ACB5;" d="M298.364,261.628h-84.729c-4.661,0-8.44-3.778-8.44-8.44s3.779-8.44,8.44-8.44h84.729 c4.661,0,8.44,3.778,8.44,8.44S303.025,261.628,298.364,261.628z"></path> </g></svg>