<svg viewBox="-358.4 -358.4 1740.80 1740.80" class="icon" version="1.1" xmlns="http://www.w3.org/2000/svg" fill="#000000" stroke="#000000"><g id="SVGRepo_bgCarrier" stroke-width="0" transform="translate(128,128), scale(0.75)"><path transform="translate(-358.4, -358.4), scale(54.4)" d="M16,24.01892196945846C18.901166637250835,23.708567848070228,21.63858757801581,27.102995949078498,24.284308564369873,25.872854493746775C27.01211268399158,24.60454806730251,28.074453074110824,21.182225046908147,28.504515968998305,18.204883546034257C28.9240245100743,15.300610231212692,27.910371130398218,12.506146596523507,26.593877567223906,9.883621934801344C25.186402469027044,7.079857253353856,23.84490306169087,3.554260195633534,20.790511146307153,2.8381787978754307C17.768097729566033,2.129594541492951,15.079914590515552,4.760093991312475,12.577825929244558,6.597654015156316C10.781603723542203,7.916818347831324,10.201568424012802,10.157365332922529,8.64833914586119,11.755516626872119C6.149923513707089,14.32619066161769,1.4077067662549325,15.132877415453805,0.8421589162109218,18.67273635236325C0.27055282177969264,22.250514857942964,2.6649183847475357,26.614953925133957,6.081773463036887,27.82008210758901C9.5245506290569,29.034353036153135,12.370071511011057,24.407235847205865,16,24.01892196945846" fill="#eccf7e" strokewidth="0"></path></g><g id="SVGRepo_tracerCarrier" stroke-linecap="round" stroke-linejoin="round" stroke="#CCCCCC" stroke-width="20.48"><path d="M771.6 845.3c0 31.4-25.5 56.9-56.9 56.9H335.1c-31.4 0-56.9-25.5-56.9-56.9V181.2c0-31.4 25.5-56.9 56.9-56.9h379.5c31.4 0 56.9 25.5 56.9 56.9v664.1z" fill="#96C8D1"></path><path d="M354.1 200.2h341.6v303.6H354.1z" fill="#EDEDED"></path><path d="M714.6 105.3H335.1c-41.9 0-75.9 34-75.9 75.9v664.1c0 41.9 34.1 75.9 75.9 75.9h379.5c41.9 0 75.9-34.1 75.9-75.9V181.2c0-41.9-34-75.9-75.9-75.9z m38 740c0 20.9-17 38-38 38H335.1c-20.9 0-38-17-38-38V181.2c0-20.9 17-38 38-38h379.5c20.9 0 38 17 38 38v664.1z" fill="#211F1E"></path><path d="M695.7 181.2H354.1c-10.5 0-19 8.5-19 19v303.6c0 10.5 8.5 19 19 19h341.6c10.5 0 19-8.5 19-19V200.2c-0.1-10.5-8.6-19-19-19z m-19 303.6H373.1V219.2h303.6v265.6zM482.2 627.2c0-10.5-8.5-19-19-19h-28.5v-28.5c0-10.5-8.5-19-19-19s-19 8.5-19 19v28.5h-28.5c-10.5 0-19 8.5-19 19s8.5 19 19 19h28.5v28.5c0 10.5 8.5 19 19 19s19-8.5 19-19v-28.5h28.5c10.5 0 19-8.5 19-19zM614.4 645.6c-13.1 0-23.7 10.6-23.7 23.7s10.6 23.7 23.7 23.7 23.7-10.6 23.7-23.7c0-13-10.6-23.7-23.7-23.7zM668.3 579.2c-13.1 0-23.7 10.6-23.7 23.7s10.6 23.7 23.7 23.7S692 616 692 602.9c0.1-13.1-10.6-23.7-23.7-23.7zM522.1 773.2c-3.7-3.7-9.7-3.7-13.4 0l-38 38c-3.7 3.7-3.7 9.7 0 13.4 1.9 1.9 4.3 2.8 6.7 2.8 2.4 0 4.9-0.9 6.7-2.8l38-38c3.7-3.7 3.7-9.7 0-13.4zM565.6 773.2l-38 38c-3.7 3.7-3.7 9.7 0 13.4 1.9 1.9 4.3 2.8 6.7 2.8 2.4 0 4.9-0.9 6.7-2.8l38-38a9.476 9.476 0 0 0-13.4-13.4z" fill="#211F1E"></path><path d="M401.2 333c2.4 0 4.9-0.9 6.7-2.8l75.9-75.9a9.476 9.476 0 0 0-13.4-13.4l-75.9 75.9c-3.7 3.7-3.7 9.7 0 13.4 1.8 1.9 4.3 2.8 6.7 2.8z" fill="#211F1E"></path></g><g id="SVGRepo_iconCarrier"><path d="M771.6 845.3c0 31.4-25.5 56.9-56.9 56.9H335.1c-31.4 0-56.9-25.5-56.9-56.9V181.2c0-31.4 25.5-56.9 56.9-56.9h379.5c31.4 0 56.9 25.5 56.9 56.9v664.1z" fill="#96C8D1"></path><path d="M354.1 200.2h341.6v303.6H354.1z" fill="#EDEDED"></path><path d="M714.6 105.3H335.1c-41.9 0-75.9 34-75.9 75.9v664.1c0 41.9 34.1 75.9 75.9 75.9h379.5c41.9 0 75.9-34.1 75.9-75.9V181.2c0-41.9-34-75.9-75.9-75.9z m38 740c0 20.9-17 38-38 38H335.1c-20.9 0-38-17-38-38V181.2c0-20.9 17-38 38-38h379.5c20.9 0 38 17 38 38v664.1z" fill="#211F1E"></path><path d="M695.7 181.2H354.1c-10.5 0-19 8.5-19 19v303.6c0 10.5 8.5 19 19 19h341.6c10.5 0 19-8.5 19-19V200.2c-0.1-10.5-8.6-19-19-19z m-19 303.6H373.1V219.2h303.6v265.6zM482.2 627.2c0-10.5-8.5-19-19-19h-28.5v-28.5c0-10.5-8.5-19-19-19s-19 8.5-19 19v28.5h-28.5c-10.5 0-19 8.5-19 19s8.5 19 19 19h28.5v28.5c0 10.5 8.5 19 19 19s19-8.5 19-19v-28.5h28.5c10.5 0 19-8.5 19-19zM614.4 645.6c-13.1 0-23.7 10.6-23.7 23.7s10.6 23.7 23.7 23.7 23.7-10.6 23.7-23.7c0-13-10.6-23.7-23.7-23.7zM668.3 579.2c-13.1 0-23.7 10.6-23.7 23.7s10.6 23.7 23.7 23.7S692 616 692 602.9c0.1-13.1-10.6-23.7-23.7-23.7zM522.1 773.2c-3.7-3.7-9.7-3.7-13.4 0l-38 38c-3.7 3.7-3.7 9.7 0 13.4 1.9 1.9 4.3 2.8 6.7 2.8 2.4 0 4.9-0.9 6.7-2.8l38-38c3.7-3.7 3.7-9.7 0-13.4zM565.6 773.2l-38 38c-3.7 3.7-3.7 9.7 0 13.4 1.9 1.9 4.3 2.8 6.7 2.8 2.4 0 4.9-0.9 6.7-2.8l38-38a9.476 9.476 0 0 0-13.4-13.4z" fill="#211F1E"></path><path d="M401.2 333c2.4 0 4.9-0.9 6.7-2.8l75.9-75.9a9.476 9.476 0 0 0-13.4-13.4l-75.9 75.9c-3.7 3.7-3.7 9.7 0 13.4 1.8 1.9 4.3 2.8 6.7 2.8z" fill="#211F1E"></path></g></svg>