<svg version="1.1" id="Layer_1" xmlns="http://www.w3.org/2000/svg" xmlns:xlink="http://www.w3.org/1999/xlink" viewBox="-128 -128 768.00 768.00" xml:space="preserve" fill="#000000"><g id="SVGRepo_bgCarrier" stroke-width="0" transform="translate(43.52000000000001,43.52000000000001), scale(0.83)"><path transform="translate(-128, -128), scale(24)" d="M16,28.01691667176783C17.959738961409617,28.276894355801318,20.09566669219054,29.059609903102817,21.854691147041184,28.157391437153656C23.61789825801097,27.25302765163432,23.724816684042217,24.66849329410738,25.170545964072005,23.313266367870355C26.920617050022837,21.672749369791322,30.03949079585768,21.58757860849021,31.138056691642184,19.45516265481547C32.192141921421296,17.409087704610748,31.20960415105041,14.889039709704514,30.662211507780334,12.653445903220979C30.11995839445958,10.438842333753236,29.99454776280775,7.48807120949204,27.957231299024397,6.464426234316267C25.587664294688278,5.273842738600251,22.789476477897775,7.077670062780456,20.154198117181842,7.37371872407139C18.75306799972079,7.531122473805084,17.39691148953032,7.998966920598677,16,7.807708360254765C14.321012706010226,7.577829305575233,12.935920655885067,5.909199340964185,11.25931857841622,6.155873593748318C9.622068749789282,6.396758048995574,8.587251322679245,8.010863545041474,7.32724536218846,9.083708968038842C5.842852859617077,10.347610689341026,3.5921627169380073,11.168329995694561,3.1440423024639124,13.065711548501568C2.696733330473832,14.959657381911274,5.014475244909931,16.54248817588874,5.1065427807222505,18.48636052384841C5.22491294685945,20.98557472293969,2.3120198074534644,23.721938927049134,3.745866028327084,25.77234574620899C5.131466663675676,27.753761151844316,8.470185087474709,26.261687733806053,10.848446871339698,26.697310297242275C12.614201020495623,27.02074077662516,14.220459419514553,27.780843986645806,16,28.01691667176783" fill="#eccf7e" strokewidth="0"></path></g><g id="SVGRepo_tracerCarrier" stroke-linecap="round" stroke-linejoin="round" stroke="#CCCCCC" stroke-width="10.24"> <g> <path style="fill:#211E48;" d="M464.629,375.089h-26.777v-85.827c0-19.966-16.244-36.211-36.211-36.211H110.359 c-19.966,0-36.211,16.244-36.211,36.211v85.827H47.371v-85.827c0-34.731,28.255-62.988,62.988-62.988h291.282 c34.731,0,62.988,28.255,62.988,62.988V375.089z"></path> <rect x="242.613" y="160.702" style="fill:#211E48;" width="26.777" height="206.973"></rect> <path style="fill:#211E48;" d="M281.839,174.09h-51.678c-19.255,0-34.921-15.666-34.921-34.921v-51.68 c0-19.255,15.666-34.921,34.921-34.921h51.678c19.255,0,34.921,15.666,34.921,34.921v51.68 C316.76,158.424,301.095,174.09,281.839,174.09z M230.161,79.344c-4.491,0-8.144,3.654-8.144,8.144v51.68 c0,4.491,3.654,8.144,8.144,8.144h51.678c4.491,0,8.144-3.654,8.144-8.144v-51.68c0-4.491-3.654-8.144-8.144-8.144H230.161z"></path> </g> <path style="fill:#B0DACC;" d="M86.6,446.044H34.921c-11.893,0-21.533-9.641-21.533-21.533v-51.678 c0-11.892,9.641-21.533,21.533-21.533H86.6c11.892,0,21.533,9.641,21.533,21.533v51.678 C108.132,436.403,98.491,446.044,86.6,446.044z"></path> <path style="fill:#211E48;" d="M86.6,459.433H34.921C15.666,459.433,0,443.767,0,424.511v-51.68 c0-19.255,15.666-34.921,34.921-34.921H86.6c19.255,0,34.921,15.666,34.921,34.921v51.68 C121.521,443.767,105.855,459.433,86.6,459.433z M34.921,364.687c-4.491,0-8.144,3.654-8.144,8.144v51.68 c0,4.491,3.654,8.144,8.144,8.144H86.6c4.491,0,8.144-3.654,8.144-8.144v-51.68c0-4.491-3.654-8.144-8.144-8.144H34.921z"></path> <path style="fill:#B0DACC;" d="M281.839,446.044h-51.678c-11.892,0-21.533-9.641-21.533-21.533v-51.678 c0-11.892,9.641-21.533,21.533-21.533h51.678c11.892,0,21.533,9.641,21.533,21.533v51.678 C303.372,436.403,293.731,446.044,281.839,446.044z"></path> <path style="fill:#211E48;" d="M281.839,459.433h-51.678c-19.255,0-34.921-15.666-34.921-34.921v-51.68 c0-19.255,15.666-34.921,34.921-34.921h51.678c19.255,0,34.921,15.666,34.921,34.921v51.68 C316.76,443.767,301.095,459.433,281.839,459.433z M230.161,364.687c-4.491,0-8.144,3.654-8.144,8.144v51.68 c0,4.491,3.654,8.144,8.144,8.144h51.678c4.491,0,8.144-3.654,8.144-8.144v-51.68c0-4.491-3.654-8.144-8.144-8.144H230.161z"></path> <path style="fill:#B0DACC;" d="M477.079,446.044H425.4c-11.892,0-21.533-9.641-21.533-21.533v-51.678 c0-11.892,9.641-21.533,21.533-21.533h51.678c11.892,0,21.533,9.641,21.533,21.533v51.678 C498.611,436.403,488.972,446.044,477.079,446.044z"></path> <path style="fill:#211E48;" d="M477.079,459.433h-51.68c-19.255,0-34.921-15.666-34.921-34.921v-51.68 c0-19.255,15.666-34.921,34.921-34.921h51.68c19.255,0,34.921,15.666,34.921,34.921v51.68 C512,443.767,496.334,459.433,477.079,459.433z M425.4,364.687c-4.491,0-8.144,3.654-8.144,8.144v51.68 c0,4.491,3.654,8.144,8.144,8.144h51.68c4.491,0,8.144-3.654,8.144-8.144v-51.68c0-4.491-3.654-8.144-8.144-8.144H425.4z"></path> </g><g id="SVGRepo_iconCarrier"> <g> <path style="fill:#211E48;" d="M464.629,375.089h-26.777v-85.827c0-19.966-16.244-36.211-36.211-36.211H110.359 c-19.966,0-36.211,16.244-36.211,36.211v85.827H47.371v-85.827c0-34.731,28.255-62.988,62.988-62.988h291.282 c34.731,0,62.988,28.255,62.988,62.988V375.089z"></path> <rect x="242.613" y="160.702" style="fill:#211E48;" width="26.777" height="206.973"></rect> <path style="fill:#211E48;" d="M281.839,174.09h-51.678c-19.255,0-34.921-15.666-34.921-34.921v-51.68 c0-19.255,15.666-34.921,34.921-34.921h51.678c19.255,0,34.921,15.666,34.921,34.921v51.68 C316.76,158.424,301.095,174.09,281.839,174.09z M230.161,79.344c-4.491,0-8.144,3.654-8.144,8.144v51.68 c0,4.491,3.654,8.144,8.144,8.144h51.678c4.491,0,8.144-3.654,8.144-8.144v-51.68c0-4.491-3.654-8.144-8.144-8.144H230.161z"></path> </g> <path style="fill:#B0DACC;" d="M86.6,446.044H34.921c-11.893,0-21.533-9.641-21.533-21.533v-51.678 c0-11.892,9.641-21.533,21.533-21.533H86.6c11.892,0,21.533,9.641,21.533,21.533v51.678 C108.132,436.403,98.491,446.044,86.6,446.044z"></path> <path style="fill:#211E48;" d="M86.6,459.433H34.921C15.666,459.433,0,443.767,0,424.511v-51.68 c0-19.255,15.666-34.921,34.921-34.921H86.6c19.255,0,34.921,15.666,34.921,34.921v51.68 C121.521,443.767,105.855,459.433,86.6,459.433z M34.921,364.687c-4.491,0-8.144,3.654-8.144,8.144v51.68 c0,4.491,3.654,8.144,8.144,8.144H86.6c4.491,0,8.144-3.654,8.144-8.144v-51.68c0-4.491-3.654-8.144-8.144-8.144H34.921z"></path> <path style="fill:#B0DACC;" d="M281.839,446.044h-51.678c-11.892,0-21.533-9.641-21.533-21.533v-51.678 c0-11.892,9.641-21.533,21.533-21.533h51.678c11.892,0,21.533,9.641,21.533,21.533v51.678 C303.372,436.403,293.731,446.044,281.839,446.044z"></path> <path style="fill:#211E48;" d="M281.839,459.433h-51.678c-19.255,0-34.921-15.666-34.921-34.921v-51.68 c0-19.255,15.666-34.921,34.921-34.921h51.678c19.255,0,34.921,15.666,34.921,34.921v51.68 C316.76,443.767,301.095,459.433,281.839,459.433z M230.161,364.687c-4.491,0-8.144,3.654-8.144,8.144v51.68 c0,4.491,3.654,8.144,8.144,8.144h51.678c4.491,0,8.144-3.654,8.144-8.144v-51.68c0-4.491-3.654-8.144-8.144-8.144H230.161z"></path> <path style="fill:#B0DACC;" d="M477.079,446.044H425.4c-11.892,0-21.533-9.641-21.533-21.533v-51.678 c0-11.892,9.641-21.533,21.533-21.533h51.678c11.892,0,21.533,9.641,21.533,21.533v51.678 C498.611,436.403,488.972,446.044,477.079,446.044z"></path> <path style="fill:#211E48;" d="M477.079,459.433h-51.68c-19.255,0-34.921-15.666-34.921-34.921v-51.68 c0-19.255,15.666-34.921,34.921-34.921h51.68c19.255,0,34.921,15.666,34.921,34.921v51.68 C512,443.767,496.334,459.433,477.079,459.433z M425.4,364.687c-4.491,0-8.144,3.654-8.144,8.144v51.68 c0,4.491,3.654,8.144,8.144,8.144h51.68c4.491,0,8.144-3.654,8.144-8.144v-51.68c0-4.491-3.654-8.144-8.144-8.144H425.4z"></path> </g></svg>